<svg width="96" height="20" viewBox="0 0 96 20" fill="none" xmlns="http://www.w3.org/2000/svg">
<path d="M44.08 2.96V17H40.66V8.22L37.62 17H34.66L31.6 8.2V17H28.18V2.96H32.36L36.18 12.74L39.92 2.96H44.08ZM58.4017 14.42H53.1017L52.2217 17H48.6217L53.8017 2.96H57.7417L62.9217 17H59.2817L58.4017 14.42ZM57.5217 11.82L55.7617 6.62L53.9817 11.82H57.5217ZM74.7111 17L71.6511 11.66H70.8711V17H67.4511V2.86H73.2911C74.4111 2.86 75.3578 3.05333 76.1311 3.44C76.9044 3.82667 77.4844 4.36 77.8711 5.04C78.2578 5.70667 78.4511 6.47333 78.4511 7.34C78.4511 8.36667 78.1644 9.24 77.5911 9.96C77.0311 10.68 76.2111 11.1733 75.1311 11.44L78.4911 17H74.7111ZM70.8711 9.32H72.9911C73.6711 9.32 74.1711 9.17333 74.4911 8.88C74.8111 8.57333 74.9711 8.12667 74.9711 7.54C74.9711 6.98 74.8044 6.54 74.4711 6.22C74.1511 5.9 73.6578 5.74 72.9911 5.74H70.8711V9.32ZM90.0259 9.78L95.7259 17H91.5859L86.7859 10.66V17H83.3659V2.86H86.7859V9.08L91.6259 2.86H95.7259L90.0259 9.78Z" fill="white"/>
<path d="M17 2.13504C17 1.28721 16.0111 0.824048 15.3598 1.36682L5.35982 9.70015C5.13182 9.89015 5 10.1716 5 10.4684V18C5 18.5523 5.44772 19 6 19H16C16.5523 19 17 18.5523 17 18V2.13504Z" fill="#F7B500"/>
<path d="M0 2.13504C0 1.28721 0.988857 0.824048 1.64018 1.36682L11.6402 9.70015C11.8682 9.89015 12 10.1716 12 10.4684V18C12 18.5523 11.5523 19 11 19H1C0.447715 19 0 18.5523 0 18V2.13504Z" fill="#257CFF"/>
<mask id="mask0" mask-type="alpha" maskUnits="userSpaceOnUse" x="0" y="1" width="12" height="18">
<path d="M0 2.13504C0 1.28721 0.988857 0.824048 1.64018 1.36682L11.6402 9.70015C11.8682 9.89015 12 10.1716 12 10.4684V18C12 18.5523 11.5523 19 11 19H1C0.447715 19 0 18.5523 0 18V2.13504Z" fill="#2D38D7"/>
</mask>
<g mask="url(#mask0)">
<path d="M17 2.13504C17 1.28721 16.0111 0.824048 15.3598 1.36682L5.35982 9.70015C5.13182 9.89015 5 10.1716 5 10.4684V18C5 18.5523 5.44772 19 6 19H16C16.5523 19 17 18.5523 17 18V2.13504Z" fill="white" style="mix-blend-mode:hard-light"/>
</g>
</svg>
